<svg id="Layer_1" data-name="Layer 1" xmlns="http://www.w3.org/2000/svg" viewBox="0 0 512 512"><defs><style>.cls-1{fill:#e9e2da;}.cls-2{fill:#061535;}</style></defs><rect class="cls-1" width="512" height="512"/><path class="cls-2" d="M114.93,189.78h10.22a9.59,9.59,0,0,1,7.2,3.15,10,10,0,0,1,3,7.06v58.56q0,21.33-12.31,28.83a50.37,50.37,0,0,1-26.73,7.51A47.29,47.29,0,0,1,81,292.34a25.14,25.14,0,0,1-12-8.26Q60.28,273,60.28,253.75q0-18.93,8.71-30.33,9-11.71,23.12-11.72a28,28,0,0,1,13.21,3,28.38,28.38,0,0,1,9.61,9.31ZM80.7,252.85q0,12,4.5,18.32t12.92,6.3a14.62,14.62,0,0,0,12.61-6.3q4.2-6.32,4.2-18.32,0-10.82-4.5-17.12a15.7,15.7,0,0,0-12.91-6A14.34,14.34,0,0,0,85.2,236Q80.7,242,80.7,252.85Z"/><path class="cls-2" d="M153.48,286.18a29.66,29.66,0,0,1-9-14.56,67.15,67.15,0,0,1-2.7-19.07A60.38,60.38,0,0,1,144,236.33a33.53,33.53,0,0,1,7.06-13.52,31.23,31.23,0,0,1,20.12-10.66q12.31-1.64,22.22,2a30.6,30.6,0,0,1,16.82,15.61q5.1,9.92,5.11,23.13a57.44,57.44,0,0,1-2.1,16.51,42.57,42.57,0,0,1-5.41,11.72q-7.2,9.9-18.32,12.31a40.91,40.91,0,0,1-20,.45Q159.49,291.59,153.48,286.18Zm14.42-52.85q-6.32,6.9-5.71,20.57T167.3,273q1.8,2.4,6.3,4a14.36,14.36,0,0,0,9.16.3q4.67-1.35,8.26-6.75t3.91-17.42q0-10.82-3.46-16.22t-8-6.91a14.6,14.6,0,0,0-9-.15A15.62,15.62,0,0,0,167.9,233.33Z"/><path class="cls-2" d="M221.46,267h20.42q.3,6,4.51,9,4.5,3,12,3a19.25,19.25,0,0,0,9.31-2.1c2.4-1.4,3.61-3.3,3.61-5.7q0-5.42-12.62-8.11a57.91,57.91,0,0,1-8.11-1.8q-15.92-3.9-21.32-9.31-6-5.41-6-14.42A23.94,23.94,0,0,1,232,218.61q9-6.9,23.43-6.91,15.61,0,24.93,6.91a26.49,26.49,0,0,1,9.31,19.52H276.72A9.55,9.55,0,0,1,268,233l-2.4-2.41q-3.6-2.7-9.91-2.7-6,0-9,1.8a6.07,6.07,0,0,0-2.7,5.41q0,4.8,15.61,8.11a32.48,32.48,0,0,0,3.16.9,11.77,11.77,0,0,0,2.55.3q15.31,3.9,21.32,9,5.7,5.4,5.71,14.41,0,13.22-9.61,20.42-9,6.62-27,6.61-17.12,0-25.53-6.91-8.71-6.9-8.71-20.12Z"/><path class="cls-2" d="M311.67,321.62V305.1h5.7q6,0,9.46-2.85t1.35-9.16L300.25,213.5h23.13L339.6,270l14.11-49.25q1.8-7.2,9.61-7.21h14.42l-30.64,91q-3.6,9.92-9,14.12-5.4,3.6-17.72,3.6h-4.2a11.13,11.13,0,0,0-2.25-.45A21,21,0,0,0,311.67,321.62Z"/><path class="cls-2" d="M437,290.09a37.1,37.1,0,0,1-13.37,4.05,119.48,119.48,0,0,1-12.46.75A31.43,31.43,0,0,1,392.26,289q-8.11-5.85-8.11-19.37,0-12.6,7.36-18t18.77-7.21a17.59,17.59,0,0,0,3.6-.45c1.4-.3,3-.55,4.81-.75q13.21-1.8,13.21-7.81c0-3-1.55-5-4.65-5.86a31,31,0,0,0-8.56-1.35,21.87,21.87,0,0,0-7.51,1.2,8.18,8.18,0,0,0-4.81,4.51H386.25a23.16,23.16,0,0,1,8.41-15.32q8.11-6.9,23.13-6.91,16.81,0,25.22,5.71a19.28,19.28,0,0,1,8.71,16.82v27.33q0,12-4.35,18.77A26.73,26.73,0,0,1,437,290.09Zm-4.81-36.94a56.68,56.68,0,0,1-11.71,3.9l-6.91,1.5c-3.6,1-6.21,2.31-7.81,3.91a12.21,12.21,0,0,0-2.1,6.6,9.74,9.74,0,0,0,2.7,7.21c1.81,1.61,4.41,2.4,7.81,2.4q8.42,0,13.22-4.8t4.8-13.21Z"/><polygon class="cls-2" points="412.43 385.15 99.57 385.15 99.57 311.05 82.07 311.05 82.07 402.65 429.93 402.65 429.93 311.05 412.43 311.05 412.43 385.15"/><polygon class="cls-2" points="82.07 109.35 82.07 200.95 99.57 200.95 99.57 126.85 412.43 126.85 412.43 200.95 429.93 200.95 429.93 109.35 82.07 109.35"/></svg>