<?xml version="1.0" encoding="UTF-8"?> <svg xmlns="http://www.w3.org/2000/svg" xmlns:xlink="http://www.w3.org/1999/xlink" width="233px" height="36px" viewBox="0 0 233 36"><defs><polygon id="path-1" points="0.262063941 0.0386756757 11.0545556 0.0386756757 11.0545556 16.0620811 0.262063941 16.0620811"></polygon><polygon id="path-3" points="0 0.348810811 50.7635195 0.348810811 50.7635195 35.5132703 0 35.5132703"></polygon></defs><g id="Symbols" stroke="none" stroke-width="1" fill="none" fill-rule="evenodd"><g id="Menu-" transform="translate(-2.000000, -6.000000)"><g id="Group-29" transform="translate(2.000000, 6.000000)"><polygon id="Fill-1" fill="#0F4C6C" points="59.7195119 13.7981189 59.7195119 27.3959027 67.1159187 27.3959027 67.1159187 29.8215243 56.9034847 29.8215243 56.9034847 13.7981189"></polygon><polygon id="Fill-2" fill="#0F4C6C" points="81.0137581 13.7981189 81.0137581 16.2237405 73.036561 16.2237405 73.036561 20.5636865 79.9190977 20.5636865 79.9190977 22.9669297 73.036561 22.9669297 73.036561 27.3959027 80.9688189 27.3959027 80.9688189 29.8215243 70.2205338 29.8215243 70.2205338 13.7981189"></polygon><polygon id="Fill-3" fill="#0F4C6C" points="96.788835 16.2238865 91.470378 16.2238865 91.470378 29.8216703 88.6553277 29.8216703 88.6553277 16.2238865 83.3368706 16.2238865 83.3368706 13.7982649 96.788835 13.7982649"></polygon><g id="Group-28" transform="translate(0.000000, 0.137822)"><path d="M107.335284,24.9879405 C107.335284,23.118373 105.547486,22.918427 103.648316,22.6732378 C101.480976,22.3837784 99.1343683,21.6272919 99.1343683,18.1109676 C99.1343683,14.2390216 102.262528,13.3935081 105.324255,13.3935081 C106.798945,13.3935081 108.161775,13.5710757 109.458173,13.7048595 L109.458173,16.1971297 C108.341043,16.0414541 106.776475,15.8191297 105.369194,15.8191297 C103.133957,15.8191297 102.016827,16.5089676 102.016827,18.0443189 C102.016827,19.7134541 103.513987,19.9581568 105.212396,20.2252378 C107.558515,20.6037243 110.217744,20.9822108 110.217744,24.8765351 C110.217744,28.4152378 107.714825,29.9505892 104.094777,29.9505892 C102.307467,29.9505892 100.720918,29.7506432 99.3351294,29.4830757 L99.3351294,26.968427 C101.011557,27.2802649 102.508716,27.5249676 103.871547,27.5249676 C106.128276,27.5249676 107.335284,26.6794541 107.335284,24.9879405" id="Fill-4" fill="#0F4C6C"></path><polygon id="Fill-6" fill="#0F4C6C" points="124.718892 13.6602973 124.718892 16.0859189 116.741695 16.0859189 116.741695 20.4258649 123.624231 20.4258649 123.624231 22.8291081 116.741695 22.8291081 116.741695 27.2580811 124.674441 27.2580811 124.674441 29.6837027 113.926156 29.6837027 113.926156 13.6602973"></polygon><polygon id="Fill-8" fill="#0F4C6C" points="131.377172 13.6602973 131.377172 27.2580811 138.773579 27.2580811 138.773579 29.6837027 128.561633 29.6837027 128.561633 13.6602973"></polygon><path d="M149.297412,24.9879405 C149.297412,23.118373 147.509613,22.918427 145.610444,22.6732378 C143.443104,22.3837784 141.096496,21.6272919 141.096496,18.1109676 C141.096496,14.2390216 144.224655,13.3935081 147.286383,13.3935081 C148.761073,13.3935081 150.123903,13.5710757 151.420301,13.7048595 L151.420301,16.1971297 C150.303171,16.0414541 148.738603,15.8191297 147.331322,15.8191297 C145.096085,15.8191297 143.978955,16.5089676 143.978955,18.0443189 C143.978955,19.7134541 145.476603,19.9581568 147.174523,20.2252378 C149.520643,20.6037243 152.179871,20.9822108 152.179871,24.8765351 C152.179871,28.4152378 149.676953,29.9505892 146.056905,29.9505892 C144.269595,29.9505892 142.683045,29.7506432 141.297745,29.4830757 L141.297745,26.968427 C142.973685,27.2802649 144.470844,27.5249676 145.833674,27.5249676 C148.090404,27.5249676 149.297412,26.6794541 149.297412,24.9879405" id="Fill-10" fill="#0F4C6C"></path><path d="M162.547639,13.3932649 C163.888488,13.3932649 165.273787,13.5265622 166.837867,13.927427 L166.837867,16.4863459 C165.855066,16.1749946 164.290498,15.8188865 163.061509,15.8188865 C159.932861,15.8188865 158.01171,17.3766162 158.01171,21.5827784 C158.01171,26.0560216 160.268439,27.5247243 162.905198,27.5247243 C164.156657,27.5247243 165.631347,27.2357514 166.882806,26.7463459 L166.882806,29.2609946 C165.475037,29.7508865 163.799098,29.9508324 162.570108,29.9508324 C157.542291,29.9508324 155.128762,26.8572649 155.128762,21.649427 C155.128762,16.5758595 157.676131,13.3932649 162.547639,13.3932649" id="Fill-12" fill="#0F4C6C"></path><polygon id="Fill-14" fill="#0F4C6C" points="173.496196 13.6602973 173.496196 20.4258649 181.250163 20.4258649 181.250163 13.6602973 184.065701 13.6602973 184.065701 29.6837027 181.250163 29.6837027 181.250163 22.8514865 173.496196 22.8514865 173.496196 29.6837027 170.680657 29.6837027 170.680657 13.6602973"></polygon><path d="M191.751331,23.8529676 L197.136708,23.8529676 L194.589828,16.0414541 L194.343639,16.0414541 L191.751331,23.8529676 Z M192.533859,13.6377243 L196.444058,13.6377243 L201.940807,29.6835081 L198.968958,29.6835081 L197.851828,26.3233459 L191.14856,26.3233459 L190.030941,29.6835081 L187.059092,29.6835081 L192.533859,13.6377243 Z" id="Fill-16" fill="#0F4C6C"></path><path d="M210.296959,16.0860649 L207.72712,16.0860649 L207.72712,27.2577405 L210.296959,27.2577405 C213.559447,27.2577405 215.257368,24.9435243 215.257368,21.6942811 C215.257368,18.4450378 213.559447,16.0860649 210.296959,16.0860649 L210.296959,16.0860649 Z M204.91207,29.6838486 L204.91207,13.6604432 L210.610068,13.6604432 C214.989198,13.6604432 218.140315,16.3307676 218.140315,21.6942811 C218.140315,27.0573081 214.989198,29.6838486 210.610068,29.6838486 L204.91207,29.6838486 Z" id="Fill-18" fill="#0F4C6C"></path><g id="Group-22" transform="translate(221.765199, 13.621622)"><mask id="mask-2" fill="white"><use xlink:href="#path-1"></use></mask><g id="Clip-21"></g><polygon id="Fill-20" fill="#0F4C6C" mask="url(#mask-2)" points="11.0547998 0.0386756757 11.0547998 2.4642973 3.07760273 2.4642973 3.07760273 6.80424324 9.96013941 6.80424324 9.96013941 9.20748649 3.07760273 9.20748649 3.07760273 13.6364595 11.0098606 13.6364595 11.0098606 16.0620811 0.262063941 16.0620811 0.262063941 0.0386756757"></polygon></g><path d="M21.5334985,16.7760973 L19.3212197,16.7760973 L19.3212197,21.627827 L21.5334985,21.627827 C23.4326683,21.627827 24.0359283,20.225773 24.0359283,19.1350703 C24.0359283,18.0443676 23.4326683,16.7760973 21.5334985,16.7760973" id="Fill-23" fill="#0F4C6C"></path><g id="Group-27"><mask id="mask-4" fill="white"><use xlink:href="#path-3"></use></mask><g id="Clip-26"></g><path d="M44.5931715,29.6837027 L40.7274231,29.6837027 L34.1579954,19.7584054 L34.1579954,29.6837027 L30.4705384,29.6837027 L30.4705384,13.6602973 L34.4261652,13.6602973 L40.9506537,23.9193243 L40.9506537,13.6602973 L44.5931715,13.6602973 L44.5931715,29.6837027 Z M24.1922386,29.6837027 C23.4106872,28.0369459 22.6730981,26.3897027 21.8685887,24.7434324 L19.3212197,24.7434324 L19.3212197,29.6837027 L15.6342512,29.6837027 L15.6342512,13.6602973 L21.2203895,13.6602973 C25.1086075,13.6602973 27.8122868,15.0404595 27.8122868,19.2685135 C27.8122868,20.4482432 27.2984168,22.4958649 25.4436977,23.7641351 L28.3261568,29.6837027 L24.1922386,29.6837027 Z M49.3850583,0.348567568 L1.3787543,0.348567568 C0.617718658,0.348567568 -0.000195387841,0.963486486 -0.000195387841,1.72191892 L-0.000195387841,34.1399189 C-0.000195387841,34.8988378 0.617718658,35.5132703 1.3787543,35.5132703 L50.7635195,35.5132703 L50.7635195,1.72191892 C50.7635195,0.963486486 50.1460939,0.348567568 49.3850583,0.348567568 L49.3850583,0.348567568 Z" id="Fill-25" fill="#0F4C6C" mask="url(#mask-4)"></path></g></g></g></g></g></svg> 